<?xml version="1.0" encoding="utf-8"?>
<!-- Generator: Adobe Illustrator 16.0.0, SVG Export Plug-In . SVG Version: 6.00 Build 0)  -->
<!DOCTYPE svg PUBLIC "-//W3C//DTD SVG 1.1//EN" "http://www.w3.org/Graphics/SVG/1.1/DTD/svg11.dtd">
<svg version="1.1" id="_x30_01_x5F_logo" xmlns="http://www.w3.org/2000/svg" xmlns:xlink="http://www.w3.org/1999/xlink" x="0px"
	 y="0px" width="500px" height="160.454px" viewBox="0 0 500 160.454" enable-background="new 0 0 500 160.454"
	 xml:space="preserve">
<g>
	<polygon stroke="#000000" stroke-width="2" stroke-miterlimit="10" points="168.677,7.221 155.026,7.221 130.877,72.676 
		107.03,7.476 106.837,7.221 93.187,7.221 124.844,90.22 137.021,90.22 	"/>
	<polygon stroke="#000000" stroke-width="2" stroke-miterlimit="10" points="13.283,28.548 37.26,82.22 48.485,82.22 73.283,28.548 
		73.283,90.22 85.283,90.22 85.283,7.221 70.668,7.221 42.878,67.327 15.193,7.221 1.283,7.221 1.283,90.22 13.283,90.22 	"/>
	<polygon stroke="#000000" stroke-width="2" stroke-miterlimit="10" points="221.383,89.22 239.62,26.893 257.856,89.22 
		270.697,89.22 294.379,7.221 281.166,7.221 263.823,71.135 245.408,7.221 233.83,7.221 215.418,71.12 198.187,7.221 184.856,7.221 
		208.66,89.22 	"/>
	<polygon stroke="#000000" stroke-width="2" stroke-miterlimit="10" points="426.815,89.22 445.049,26.893 463.286,89.22 
		476.127,89.22 499.811,7.221 486.6,7.221 469.255,71.135 450.842,7.221 439.26,7.221 420.851,71.12 403.62,7.221 390.288,7.221 
		414.091,89.22 	"/>
	<path stroke="#000000" stroke-width="2" stroke-miterlimit="10" d="M372.863,84.667c10.626-8.8,17.408-22.088,17.408-36.93
		c0-24.865-18.808-45.363-43.068-47.708c-1.688-0.172-3.92-0.263-4.92-0.263v0.047c-27,0.269-47.662,21.658-47.662,47.924
		c0,5.787,0.918,11.336,2.807,16.477c6.715,18.376,24.282,31.493,44.986,31.493C354.052,95.707,364.612,91.562,372.863,84.667z
		 M306.9,47.738c0-8.193,2.804-15.74,7.49-21.748c3.528-4.443,8.065-8.041,13.174-10.447c0.299-0.138,0.597-0.278,0.899-0.408
		c0.043-0.019,0.31-0.038,0.354-0.056c4.082-1.724,8.465-2.695,13.465-2.761v24.761c-5,0-10.633,4.781-10.633,10.657
		c0,5.875,4.941,10.658,10.816,10.658c5.873,0,10.815-4.783,10.815-10.657V13.916c1,0.48,2.83,1.067,4.266,1.742
		c0.209,0.101,0.324,0.198,0.531,0.302c0.037,0.018,0.024,0.038,0.062,0.056c4.479,2.276,8.459,5.479,11.68,9.365
		c4.978,6.103,7.957,13.885,7.957,22.355c0,19.538-15.901,35.432-35.439,35.432C322.802,83.169,306.9,67.275,306.9,47.738z"/>
	<path stroke="#000000" stroke-width="0.5" stroke-miterlimit="10" d="M341.349,147.632c-2.648,0-4.805,2.122-4.805,4.729
		c0,2.606,2.155,4.729,4.805,4.729c2.606,0,4.729-2.123,4.729-4.729C346.078,149.754,343.956,147.632,341.349,147.632z"/>
	<path stroke="#000000" stroke-width="0.5159" stroke-miterlimit="10" d="M369.269,122.497c4.811,0,9.022,2.562,11.377,6.385
		c0.693-3.144,1.837-6.116,3.372-8.846c-3.87-3.607-9.045-5.835-14.751-5.835c-11.968,0-21.669,9.702-21.669,21.67
		c0,11.967,9.701,21.668,21.669,21.668c5.706,0,10.881-2.228,14.751-5.834c-1.534-2.732-2.679-5.704-3.372-8.848
		c-2.354,3.822-6.566,6.386-11.377,6.386c-7.374,0-13.374-5.999-13.374-13.375C355.896,128.495,361.895,122.497,369.269,122.497z"/>
	<path stroke="#000000" stroke-width="0.5" stroke-miterlimit="10" d="M485.14,115.533c-5.311,0-9.667,2.176-12.325,6.003
		c-2.371-3.828-6.496-6.003-11.705-6.003c-3.855,0-7.826,1.562-9.826,4.234v-3.547h-8v41h8v-24.283c0-5.729,3.4-9.887,8.264-9.887
		c4.925,0,7.736,3.332,7.736,8.916v25.254h8v-24.057c0-6.238,3.145-10.113,8.412-10.113c5.19,0,7.588,3.282,7.588,10.039v24.131h8
		v-25.932C499.283,121.572,494.026,115.533,485.14,115.533z"/>
	<path stroke="#000000" stroke-width="0.5" stroke-miterlimit="10" d="M412.488,113.083c-12.951,0-23.451,10.498-23.451,23.452
		c0,12.95,10.5,23.45,23.451,23.45c12.953,0,23.451-10.5,23.451-23.45C435.939,123.582,425.441,113.083,412.488,113.083z
		 M404.283,149.435v-25.801l22.343,12.901L404.283,149.435z"/>
	<polygon stroke="#000000" stroke-width="0.5" stroke-miterlimit="10" points="217.178,153.788 210.964,132.22 207.056,132.22 
		200.845,153.785 195.029,132.22 190.532,132.22 198.564,160.22 202.856,160.22 209.011,139.189 215.163,160.22 219.495,160.22 
		227.486,132.22 223.027,132.22 	"/>
	<polygon stroke="#000000" stroke-width="0.5" stroke-miterlimit="10" points="284.489,153.788 278.275,132.22 274.369,132.22 
		268.156,153.785 262.344,132.22 257.846,132.22 265.876,160.22 270.172,160.22 276.321,139.189 282.477,160.22 286.807,160.22 
		294.799,132.22 290.342,132.22 	"/>
	<polygon stroke="#000000" stroke-width="0.5" stroke-miterlimit="10" points="110.221,153.552 102.204,131.47 102.138,131.22 
		97.551,131.22 108.191,159.22 112.285,159.22 122.927,131.22 118.338,131.22 	"/>
	<polygon stroke="#000000" stroke-width="0.5" stroke-miterlimit="10" points="80.638,151.425 71.331,131.22 66.283,131.22 
		66.283,159.22 70.283,159.22 70.283,139.048 78.749,157.22 82.523,157.22 90.283,139.048 90.283,159.22 94.283,159.22 
		94.283,131.22 89.979,131.22 	"/>
	<path stroke="#000000" stroke-width="0.5" stroke-miterlimit="10" d="M21.17,133.548c1.729,1.535,3.713,3.809,4.546,5.28
		l3.072-2.146c-0.929-1.502-3.042-3.617-4.736-5.088L21.17,133.548z"/>
	<path stroke="#000000" stroke-width="0.5" stroke-miterlimit="10" d="M25.555,156.82c-0.96,0-1.952-1.473-2.816-3.938
		c2.08-2.08,3.874-4.419,5.313-7.012l-3.361-1.439c-0.832,1.537-1.888,2.898-3.041,4.275c-0.353-1.633-0.673-3.486-0.928-5.486
		h8.562v-3h-8.945c-0.258-3-0.385-6-0.32-9h-4.001c0.032,3,0.128,6,0.384,9h-6.117v-4.785c2-0.383,3.604-0.799,5.204-1.279
		l-2.57-3.23c-3.264,1.055-8.229,2.08-12.711,2.688c0.416,0.863,1.361,2.271,1.522,3.199c1.632-0.191,3.555-0.416,5.555-0.703v4.111
		h-6v3h6v4.442c-3,0.449-5.27,0.801-7.094,1.089l1.146,3.842c1.697-0.318,3.948-0.734,5.948-1.15v4.642
		c0,0.511-0.627,0.671-1.203,0.671c-0.577,0.031-2.65,0.064-4.442-0.031c0.544,1.057,1.075,2.785,1.234,3.842
		c2.594,0.031,4.476-0.129,5.724-0.736c1.278-0.607,1.688-1.633,1.688-3.714v-5.474l5.204-1.058l-0.281-3.456
		c-1.633,0.286-2.923,0.607-4.923,0.896v-3.805h6.47c0.385,3,0.929,6.127,1.632,8.654c-2.208,1.826-4.672,3.434-7.138,4.553
		c0.929,0.865,1.983,2.197,2.529,3.094c2.049-1.057,4.065-2.358,5.921-3.896c1.377,3.139,3.17,5.062,5.506,5.062
		c2.913,0,4.099-1.404,4.706-7.008c-1.023-0.416-2.304-1.277-3.137-2.176C26.612,155.283,26.228,156.82,25.555,156.82z"/>
	<path stroke="#000000" stroke-width="0.5" stroke-miterlimit="10" d="M53.795,131.359l-3.404-0.729
		c-0.928,3.743-2.107,7.717-4.107,10.407v-4.817h-5.391c0.545-2,1.121-3.16,1.667-4.762l-4.162-0.484
		c-0.127,1.506-0.513,3.246-0.929,5.246h-3.186v23h3v-2h9v-14.869c1,0.574,1.739,1.379,2.251,1.859
		c0.991-1.377,1.771-2.99,2.603-4.99h6.851c-0.352,11-0.768,16.033-1.696,17.06c-0.417,0.416-0.769,0.511-1.409,0.511
		c-0.832,0-2.721-0.018-4.77-0.21c0.673,1.056,1.186,2.647,1.249,3.704c1.888,0.062,3.811,0.093,5.026-0.066
		c1.279-0.226,2.176-0.578,3.072-1.764c1.312-1.697,1.665-6.992,2.081-21.299c0.032-0.45,0.032-1.936,0.032-1.936h-9.026
		C53.025,134.22,53.474,132.736,53.795,131.359z M42.283,154.22h-5v-7h5V154.22z M42.283,144.22h-5v-5h5V144.22z"/>
	<path stroke="#000000" stroke-width="0.5" stroke-miterlimit="10" d="M56.259,150.226c-0.992-1.857-3.104-4.898-4.706-7.107
		l-2.977,1.697c1.568,2.336,3.554,5.475,4.449,7.394L56.259,150.226z"/>
	<path stroke="#000000" stroke-width="0.5" stroke-miterlimit="10" d="M132.156,130.615c-1.601,4.545-4.385,9.091-7.266,11.97
		c0.639,0.929,1.796,3.011,2.148,3.972c0.703-0.771,1.244-1.633,2.244-2.594v16.26h3v-21.927c1-2.112,2.434-4.354,3.266-6.562
		L132.156,130.615z"/>
	<path stroke="#000000" stroke-width="0.5" stroke-miterlimit="10" d="M148.257,145.562c1.536,3.297,2.881,7.683,3.233,10.531
		l3.648-1.248c-0.447-2.881-1.824-7.14-3.487-10.437L148.257,145.562z"/>
	<path stroke="#000000" stroke-width="0.5" stroke-miterlimit="10" d="M138.078,144.728c-0.735,3.554-2.081,7.172-3.905,9.412
		c0.929,0.48,2.528,1.44,3.265,2.049c1.792-2.594,3.425-6.625,4.353-10.691L138.078,144.728z"/>
	<path stroke="#000000" stroke-width="0.5" stroke-miterlimit="10" d="M152.194,136.22h-11.012c0.576-2,1.089-3.139,1.505-4.771
		l-3.713-0.833c-1.089,4.384-3.009,8.801-5.442,11.521c0.864,0.576,2.401,2.065,3.073,2.737c1.057-1.345,2.113-3.655,3.009-4.655
		h3.669v15.842c0,0.416-0.138,0.543-0.554,0.543c-0.449,0-1.782,0-3.127-0.031c0.577,1.023,1.158,2.722,1.319,3.841
		c2.047,0,3.177-0.159,4.298-0.769c1.15-0.641,1.062-1.696,1.062-3.521V140.22h5.111c-0.16,1-0.354,2.51-0.512,3.502l3.231,0.424
		c0.448-1.856,0.993-4.893,1.376-7.484l-2.688-0.542L152.194,136.22z"/>
	<path stroke="#000000" stroke-width="0.5" stroke-miterlimit="10" d="M181.483,150.226c-0.993-1.856-3.106-4.897-4.706-7.105
		l-2.977,1.695c1.566,2.336,3.552,5.475,4.448,7.395L181.483,150.226z"/>
	<path stroke="#000000" stroke-width="0.5" stroke-miterlimit="10" d="M179.019,131.359l-3.517-0.729
		c-0.928,3.746-2.219,7.721-4.219,10.409v-4.817h-5.165c0.544-2,1.12-3.16,1.665-4.761l-4.162-0.485
		c-0.127,1.506-0.512,3.246-0.928,5.246h-4.41v23h4v-2h9v-14.869c1,0.574,1.852,1.381,2.363,1.858
		c0.992-1.375,1.883-2.989,2.715-4.989h6.851c-0.353,11-0.77,16.032-1.696,17.057c-0.417,0.42-0.77,0.513-1.41,0.513
		c-0.831,0-2.72-0.017-4.769-0.209c0.673,1.058,1.185,2.647,1.248,3.704c1.889,0.062,3.811,0.093,5.026-0.066
		c1.281-0.226,2.177-0.58,3.073-1.765c1.312-1.696,1.665-6.991,2.081-21.301c0.032-0.448,0.032-1.933,0.032-1.933h-9.027
		C178.249,134.22,178.698,132.736,179.019,131.359z M168.283,154.22h-6v-7h6V154.22z M168.283,144.22h-6v-5h6V144.22z"/>
	<path stroke="#000000" stroke-width="0.5" stroke-miterlimit="10" d="M242.759,130.95c-8.031,0-14.566,6.534-14.566,14.565
		s6.535,14.564,14.566,14.564s14.565-6.533,14.565-14.564S250.79,130.95,242.759,130.95z M242.759,155.878
		c-5.716,0-10.364-4.648-10.364-10.363s4.648-10.365,10.364-10.365c5.715,0,10.364,4.65,10.364,10.365
		S248.474,155.878,242.759,155.878z"/>
</g>
</svg>
